<?xml version="1.0" encoding="UTF-8"?>
<svg id="Layer_2" data-name="Layer 2" xmlns="http://www.w3.org/2000/svg" viewBox="0 0 647.92 130.7">
  <defs>
    <style>
      .cls-1 {
        fill: #f2f2f2;
      }
    </style>
  </defs>
  <g id="Layer_1-2" data-name="Layer 1">
    <g>
      <g>
        <path class="cls-1" d="M0,51.26V.86h21.82c4.51,0,8.4.73,11.66,2.2,3.26,1.46,5.78,3.56,7.56,6.3,1.77,2.74,2.66,5.98,2.66,9.72s-.89,7.04-2.66,9.76c-1.78,2.71-4.3,4.81-7.56,6.3-3.26,1.49-7.15,2.23-11.66,2.23H6.41l5.33-5.26v19.15H0ZM11.74,33.41l-5.33-5.54h14.76c3.55,0,6.24-.77,8.06-2.3,1.82-1.54,2.74-3.7,2.74-6.48s-.91-4.93-2.74-6.44c-1.82-1.51-4.51-2.27-8.06-2.27H6.41l5.33-5.54v28.58Z"/>
        <path class="cls-1" d="M46.08,51.26L68.47.86h11.52l22.61,50.4h-12.24L71.86,6.77h4.68l-18.5,44.5h-11.95ZM57.38,40.46l2.95-8.86h26.06l3.02,8.86h-32.04Z"/>
        <path class="cls-1" d="M124.49,52.13c-4.03,0-7.91-.54-11.63-1.62-3.72-1.08-6.71-2.48-8.96-4.21l3.96-8.78c2.11,1.54,4.66,2.8,7.63,3.78,2.98.98,5.98,1.48,9,1.48,2.3,0,4.16-.24,5.58-.72,1.42-.48,2.46-1.12,3.13-1.91.67-.79,1.01-1.72,1.01-2.77,0-1.34-.53-2.41-1.58-3.2-1.06-.79-2.46-1.44-4.21-1.94-1.75-.5-3.66-.98-5.72-1.44-2.06-.46-4.14-1.01-6.23-1.66s-4.01-1.51-5.76-2.59c-1.75-1.08-3.14-2.5-4.18-4.25-1.03-1.75-1.55-3.95-1.55-6.59,0-2.88.77-5.51,2.3-7.88,1.54-2.38,3.88-4.27,7.02-5.69,3.14-1.42,7.09-2.12,11.84-2.12,3.17,0,6.3.38,9.4,1.15,3.1.77,5.8,1.87,8.1,3.31l-3.67,8.78c-2.26-1.3-4.58-2.27-6.98-2.92-2.4-.65-4.7-.97-6.91-.97s-4.15.25-5.54.76c-1.39.5-2.41,1.19-3.06,2.05-.65.86-.97,1.82-.97,2.88,0,1.34.53,2.42,1.58,3.24,1.06.82,2.45,1.45,4.18,1.91,1.73.46,3.65.91,5.76,1.37,2.11.46,4.2,1.02,6.26,1.69,2.06.67,3.96,1.52,5.69,2.56,1.73,1.03,3.13,2.42,4.21,4.18,1.08,1.75,1.62,3.92,1.62,6.52,0,2.83-.78,5.42-2.34,7.78-1.56,2.35-3.92,4.25-7.09,5.69s-7.13,2.16-11.88,2.16Z"/>
        <path class="cls-1" d="M153.79,51.26V.86h11.74v50.4h-11.74Z"/>
        <path class="cls-1" d="M177.41,51.26V.86h9.65l29.74,36.29h-4.68V.86h11.52v50.4h-9.65l-29.74-36.29h4.68v36.29h-11.52Z"/>
        <path class="cls-1" d="M235.58,51.26V.86h22.9c5.47,0,10.3,1.04,14.47,3.13,4.18,2.09,7.44,5.02,9.79,8.78,2.35,3.77,3.53,8.2,3.53,13.28s-1.18,9.52-3.53,13.28c-2.35,3.77-5.62,6.7-9.79,8.78-4.18,2.09-9,3.13-14.47,3.13h-22.9ZM247.32,41.76h10.58c3.36,0,6.28-.64,8.75-1.91,2.47-1.27,4.39-3.1,5.76-5.47,1.37-2.38,2.05-5.15,2.05-8.32s-.68-6-2.05-8.35c-1.37-2.35-3.29-4.16-5.76-5.44-2.47-1.27-5.39-1.91-8.75-1.91h-10.58v31.39Z"/>
        <path class="cls-1" d="M317.44,52.13c-7.15,0-12.74-1.99-16.78-5.98-4.03-3.98-6.05-9.7-6.05-17.14V.86h11.74v27.86c0,4.75.98,8.2,2.95,10.33,1.97,2.14,4.7,3.2,8.21,3.2s6.31-1.07,8.28-3.2c1.97-2.14,2.95-5.58,2.95-10.33V.86h11.45v28.15c0,7.44-2.02,13.15-6.05,17.14-4.03,3.98-9.6,5.98-16.7,5.98Z"/>
        <path class="cls-1" d="M372.16,51.26V.86h9.65l29.74,36.29h-4.68V.86h11.52v50.4h-9.65l-29.74-36.29h4.68v36.29h-11.52Z"/>
        <path class="cls-1" d="M423.71,51.26L446.11.86h11.52l22.61,50.4h-12.24l-18.5-44.5h4.68l-18.5,44.5h-11.95ZM435.02,40.46l2.95-8.86h26.06l3.02,8.86h-32.04Z"/>
        <path class="cls-1" d="M485.49,51.26V.86h22.9c5.47,0,10.3,1.04,14.47,3.13s7.44,5.02,9.79,8.78c2.35,3.77,3.53,8.2,3.53,13.28s-1.18,9.52-3.53,13.28c-2.35,3.77-5.62,6.7-9.79,8.78-4.18,2.09-9,3.13-14.47,3.13h-22.9ZM497.23,41.76h10.58c3.36,0,6.28-.64,8.75-1.91,2.47-1.27,4.39-3.1,5.76-5.47s2.05-5.15,2.05-8.32-.68-6-2.05-8.35c-1.37-2.35-3.29-4.16-5.76-5.44-2.47-1.27-5.39-1.91-8.75-1.91h-10.58v31.39Z"/>
        <path class="cls-1" d="M567.35,52.13c-7.15,0-12.74-1.99-16.78-5.98-4.03-3.98-6.05-9.7-6.05-17.14V.86h11.74v27.86c0,4.75.98,8.2,2.95,10.33,1.97,2.14,4.7,3.2,8.21,3.2s6.31-1.07,8.28-3.2c1.97-2.14,2.95-5.58,2.95-10.33V.86h11.45v28.15c0,7.44-2.02,13.15-6.05,17.14-4.03,3.98-9.6,5.98-16.7,5.98Z"/>
        <path class="cls-1" d="M601.7,51.26V.86h9.65l29.74,36.29h-4.68V.86h11.52v50.4h-9.65l-29.74-36.29h4.68v36.29h-11.52Z"/>
      </g>
      <g>
        <path class="cls-1" d="M0,129.75v-55.65h12.96v55.65H0Z"/>
        <path class="cls-1" d="M26.07,129.75v-55.65h10.65l32.83,40.07h-5.17v-40.07h12.72v55.65h-10.65l-32.83-40.07h5.17v40.07h-12.72Z"/>
        <path class="cls-1" d="M90.31,129.75v-55.65h25.28c6.04,0,11.37,1.15,15.98,3.46,4.61,2.31,8.21,5.54,10.81,9.7,2.6,4.16,3.9,9.05,3.9,14.67s-1.3,10.51-3.9,14.67c-2.6,4.16-6.2,7.39-10.81,9.7-4.61,2.31-9.94,3.46-15.98,3.46h-25.28ZM103.27,119.25h11.69c3.71,0,6.93-.7,9.66-2.11,2.73-1.4,4.85-3.42,6.36-6.04,1.51-2.62,2.27-5.68,2.27-9.18s-.76-6.62-2.27-9.22c-1.51-2.6-3.63-4.6-6.36-6-2.73-1.4-5.95-2.11-9.66-2.11h-11.69v34.66Z"/>
        <path class="cls-1" d="M180.7,130.7c-7.9,0-14.07-2.2-18.52-6.6-4.45-4.4-6.68-10.7-6.68-18.92v-31.08h12.96v30.77c0,5.25,1.09,9.05,3.26,11.41,2.17,2.36,5.19,3.54,9.06,3.54s6.97-1.18,9.14-3.54c2.17-2.36,3.26-6.16,3.26-11.41v-30.77h12.64v31.08c0,8.22-2.23,14.52-6.68,18.92-4.45,4.4-10.6,6.6-18.44,6.6Z"/>
        <path class="cls-1" d="M232.05,129.75l-18.28-55.65h13.36l15.82,49.29h-6.68l16.54-49.29h11.92l15.9,49.29h-6.44l16.22-49.29h12.32l-18.28,55.65h-13.67l-14.15-43.25h3.66l-14.47,43.25h-13.75Z"/>
        <path class="cls-1" d="M303.76,129.75l24.72-55.65h12.72l24.96,55.65h-13.51l-20.43-49.13h5.17l-20.43,49.13h-13.2ZM316.24,117.82l3.26-9.78h28.78l3.34,9.78h-35.38Z"/>
        <path class="cls-1" d="M371.97,129.75v-55.65h24.09c4.98,0,9.27.81,12.88,2.42,3.6,1.62,6.39,3.94,8.35,6.96,1.96,3.02,2.94,6.6,2.94,10.73s-.98,7.78-2.94,10.77c-1.96,2.99-4.74,5.27-8.35,6.84-3.6,1.56-7.9,2.35-12.88,2.35h-17.01l5.88-5.56v21.15h-12.96ZM384.93,110.03l-5.88-6.12h16.3c3.92,0,6.89-.85,8.9-2.54,2.01-1.7,3.02-4.08,3.02-7.15s-1.01-5.45-3.02-7.11c-2.01-1.67-4.98-2.5-8.9-2.5h-16.3l5.88-6.12v31.56ZM407.42,129.75l-13.99-20.19h13.83l13.99,20.19h-13.83Z"/>
        <path class="cls-1" d="M423.08,129.75l24.72-55.65h12.72l24.96,55.65h-13.51l-20.43-49.13h5.17l-20.43,49.13h-13.2ZM435.56,117.82l3.26-9.78h28.78l3.34,9.78h-35.38Z"/>
      </g>
      <rect class="cls-1" x="516.71" y="96.4" width="100" height="12" rx="6" ry="6"/>
    </g>
  </g>
</svg>